<?xml version="1.0" encoding="utf-8"?>
<!-- Generator: Adobe Illustrator 18.0.0, SVG Export Plug-In . SVG Version: 6.00 Build 0)  -->
<!DOCTYPE svg PUBLIC "-//W3C//DTD SVG 1.1//EN" "http://www.w3.org/Graphics/SVG/1.1/DTD/svg11.dtd">
<svg version="1.1" id="Layer_1" xmlns="http://www.w3.org/2000/svg" xmlns:xlink="http://www.w3.org/1999/xlink" x="0px" y="0px"
	 viewBox="303.7 216.3 416.6 416.6" enable-background="new 303.7 216.3 416.6 416.6" xml:space="preserve">
<g id="Background" display="none">
</g>
<g id="Guides">
</g>
<g>
	<path fill="#E30613" d="M488.2,424.6c0,13.2,10.7,23.8,23.8,23.8c13.2,0,23.8-10.7,23.8-23.8c0-13.2-10.7-23.8-23.8-23.8
		S488.2,411.5,488.2,424.6z"/>
	<path fill="#E30613" d="M598.6,383.6c12.8-12.9,12.8-33.7-0.1-46.6c-22.4-22.4-53.3-36.2-87.5-36.2c-68.4,0-123.9,55.5-123.9,123.9
		s55.5,123.9,123.9,123.9c34.1,0,65-13.8,87.5-36.2c12.9-12.9,12.9-33.6,0-46.5c-12.9-12.9-33.6-12.9-46.5,0
		c-10.5,10.5-25,17-41.1,17c-32.2,0-58.2-26-58.2-58.2s26-58.2,58.2-58.2c16.1,0,30.6,6.5,41.2,17.1
		C565,396.5,585.7,396.5,598.6,383.6z"/>
	<path fill="#E30613" d="M512,216.3c-115.1,0-208.3,93.3-208.3,208.3S397,633,512,633c115.1,0,208.3-93.3,208.3-208.3
		C720.3,309.5,627,216.3,512,216.3z M512,589.7c-91.2,0-165.1-73.9-165.1-165.1S420.8,259.6,512,259.6s165.1,73.9,165.1,165.1
		S603.2,589.7,512,589.7z"/>
</g>
</svg>
