<?xml version="1.0" encoding="utf-8"?>
<!-- Generator: Adobe Illustrator 18.0.0, SVG Export Plug-In . SVG Version: 6.00 Build 0)  -->
<!DOCTYPE svg PUBLIC "-//W3C//DTD SVG 1.1//EN" "http://www.w3.org/Graphics/SVG/1.1/DTD/svg11.dtd">
<svg version="1.1" id="Layer_1" xmlns="http://www.w3.org/2000/svg" xmlns:xlink="http://www.w3.org/1999/xlink" x="0px" y="0px"
	 viewBox="-7.5 42.6 770.9 770.9" enable-background="new -7.5 42.6 770.9 770.9" xml:space="preserve">
<g transform="scale(0.03125 0.03125)">
	<path fill="#0071CE" d="M16690,20969.5c-633.9,0-1150,291.5-1401.2,800.4l-1139,2046.6l-446.5,800.4l847.9,0.7l5042.2-3.1
		c297,1,593.9-73.7,858.8-216.7c320.2-171.7,614.4-496,777.9-814.8l2998.6-5379.8c273.8-532.5,268.6-1159.8-16.4-1678.7
		l-3014-5382.1c-313.3-554.7-915.8-899.8-1572.9-899.8l-8907.1-10.9c-2,0-372.7,0.3-375.5,0.7l-446.5-0.7l387.8,693.2l1100.5,1958.6
		c317.4,575.1,915.8,937.3,1561.3,944.5l5013.2,5.8c426-0.7,796.3,232.1,1016.8,639l1327.4,2366.1
		c167.3,334.2,168.3,734.5,4.4,1070.1l-1346.9,2440.2c-219.5,392.2-611,626.7-1046.5,627.4
		C17914,20976.3,16690,20969.5,16690,20969.5z M4672.7,15706.1c309.2-549.9,305.2-1140.1-20.1-1606.3l-1179.6-2104.7l-449.5-716.1
		l-576.5,1063.6l97.3-208.9L-10.4,16722.6c-144.7,257.4-224.3,550.9-228,850.6c-5.1,360.4,100.4,714.1,301.1,1011.7l3267.9,5223.4
		c333.8,496.3,888.5,797.4,1484.5,803.5l6200.3,7.2c640-2,1236.7-355.3,1556.5-926l4349.3-7723c1-2.7,182.6-324.3,183-325.6
		l217.4-387.1l-797-1l-2259.3,1c-659.1-6.5-1269.1,337.6-1589.9,895l-2447,4345.2c-206.8,370.3-592.2,577.9-1057.8,570.7
		l-2725.2-0.7c-376.5-18.1-728.4-211.3-943.4-517.8l-1488.6-2356.6c-238.6-382-254-835.9-41.6-1213.8
		C3971.2,16978.9,4672.7,15706.1,4672.7,15706.1z M15264.9,7989.6c305.8,552.3,812.4,859.1,1382.4,831.1h3204.8
		c0,0-406.9-732.2-407.2-732.5l-3.1-4.1l-2440.2-4382c-143.7-259.4-352.9-480.9-606.9-643.4c-305.5-194.6-662.9-292.9-1023.7-280.6
		l-6528-4.8c-601.4,19.1-1152,327.7-1472.2,826.7l-2944,5225.1c-337.6,540-349.5,1231.5-31.4,1802.9l4375.9,7891.3
		c1,1.7,180.9,324.3,181.6,326.3l215.4,387.8l387.1-682.7l1152-2036.4c373.4-592.2,382-1248.6,75.8-1813.8L8343.7,10339
		c-206.5-369.7-159.4-771.4,72-1193.6l1292.6-2297.9c286.4-476.2,565.2-503.1,940.7-522.2l2969.9-8.9
		c451.9,0.7,847.9,228.7,1058.8,606.5C14677.8,6923.3,15264.9,7989.6,15264.9,7989.6z"/>
</g>
</svg>
