<?xml version="1.0" encoding="utf-8"?>
<!-- Generator: Adobe Illustrator 18.0.0, SVG Export Plug-In . SVG Version: 6.00 Build 0)  -->
<!DOCTYPE svg PUBLIC "-//W3C//DTD SVG 1.1//EN" "http://www.w3.org/Graphics/SVG/1.1/DTD/svg11.dtd">
<svg version="1.1" id="Layer_1" xmlns="http://www.w3.org/2000/svg" xmlns:xlink="http://www.w3.org/1999/xlink" x="0px" y="0px"
	 viewBox="-134 -84 300 200" enable-background="new -134 -84 300 200" xml:space="preserve">
<g transform="scale(0.03125 0.03125)">
	<path fill="#0071CE" d="M1857.9,2642.9c-185.7,0-336.9,85.4-410.5,234.5l-333.7,599.6l-130.8,234.5l248.4,0.2l1477.2-0.9
		c87,0.3,174-21.6,251.6-63.5c93.8-50.3,180-145.3,227.9-238.7l878.5-1576.1c80.2-156,78.7-339.8-4.8-491.8L3178.7-236.1
		c-91.8-162.5-268.3-263.6-460.8-263.6l-2609.5-3.2c-0.6,0-109.2,0.1-110,0.2l-130.8-0.2l113.6,203.1l322.4,573.8
		c93,168.5,268.3,274.6,457.4,276.7l1468.7,1.7c124.8-0.2,233.3,68,297.9,187.2l388.9,693.2c49,97.9,49.3,215.2,1.3,313.5
		l-394.6,714.9c-64.3,114.9-179,183.6-306.6,183.8C2216.5,2644.9,1857.9,2642.9,1857.9,2642.9z M-1662.8,1100.9
		c90.6-161.1,89.4-334-5.9-470.6l-345.6-616.6L-2146-196.1l-168.9,311.6l28.5-61.2l-748.4,1344.4c-42.4,75.4-65.7,161.4-66.8,249.2
		c-1.5,105.6,29.4,209.2,88.2,296.4l957.4,1530.3c97.8,145.4,260.3,233.6,434.9,235.4l1816.5,2.1c187.5-0.6,362.3-104.1,456-271.3
		l1274.2-2262.6c0.3-0.8,53.5-95,53.6-95.4l63.7-113.4l-233.5-0.3l-661.9,0.3c-193.1-1.9-371.8,98.9-465.8,262.2l-716.9,1273
		c-60.6,108.5-173.5,169.3-309.9,167.2l-798.4-0.2c-110.3-5.3-213.4-61.9-276.4-151.7l-436.1-690.4
		c-69.9-111.9-74.4-244.9-12.2-355.6C-1868.3,1473.8-1662.8,1100.9-1662.8,1100.9z M1440.4-1159.8c89.6,161.8,238,251.7,405,243.5
		h938.9c0,0-119.2-214.5-119.3-214.6l-0.9-1.2l-714.9-1283.8c-42.1-76-103.4-140.9-177.8-188.5c-89.5-57-194.2-85.8-299.9-82.2
		L-441-2688c-176.2,5.6-337.5,96-431.3,242.2L-1734.8-915c-98.9,158.2-102.4,360.8-9.2,528.2l1282,2311.9c0.3,0.5,53,95,53.2,95.6
		l63.1,113.6l113.4-200l337.5-596.6c109.4-173.5,111.9-365.8,22.2-531.4L-587.3-471.5c-60.5-108.3-46.7-226,21.1-349.7l378.7-673.2
		c83.9-139.5,165.6-147.4,275.6-153l870.1-2.6c132.4,0.2,248.4,67,310.2,177.7C1268.4-1472.2,1440.4-1159.8,1440.4-1159.8z"/>
</g>
</svg>
