<?xml version="1.0" encoding="utf-8"?>
<!-- Generator: Adobe Illustrator 18.0.0, SVG Export Plug-In . SVG Version: 6.00 Build 0)  -->
<!DOCTYPE svg PUBLIC "-//W3C//DTD SVG 1.1//EN" "http://www.w3.org/Graphics/SVG/1.1/DTD/svg11.dtd">
<svg version="1.1" xmlns="http://www.w3.org/2000/svg" xmlns:xlink="http://www.w3.org/1999/xlink" x="0px" y="0px"
	 viewBox="0 0 850.4 566.9" enable-background="new 0 0 850.4 566.9" xml:space="preserve">
<g id="Background" display="none">
</g>
<g id="Guides">
</g>
<g id="Foreground">
	<path fill-rule="evenodd" clip-rule="evenodd" fill="#E30613" d="M48.4,457.9c-12.5,0-22.7,10.2-22.7,22.7s10.2,22.7,22.7,22.7
		c6.3,0,11.9-2.5,16.1-6.7c5-5,13.1-5,18.2,0c5,5,5,13.1,0,18.2c-8.8,8.8-20.9,14.2-34.2,14.2C21.7,529,0,507.3,0,480.6
		c0-26.7,21.7-48.4,48.4-48.4c13.3,0,25.4,5.4,34.2,14.1c5,5,5,13.2,0,18.2c-5,5-13.1,5-18.2,0C60.3,460.4,54.7,457.9,48.4,457.9z
		 M838.6,506.6c6.5,0.1,11.8,5,11.8,11.4c0,6.4-5.4,11-11.8,11h-27.3c-16.5,0-33.6-11.5-33.6-29.8c0-7.4,2.8-13.7,7.2-18.6
		c-4.4-4.9-7.2-11.2-7.2-18.6c0-18.3,17.1-29.8,33.6-29.8l27.4,0c6.5,0.1,11.8,5,11.8,11.4c0,6.4-5.4,11-11.8,11h-27.3
		c-8.2,0-11.2,5.2-11.2,7.4c0,2.2,3,7.4,11.2,7.4l27.4,0c6.5,0.1,11.8,5,11.8,11.4c0,6.4-5.4,11-11.8,11h-27.3
		c-8.2,0-11.2,5.2-11.2,7.4c0,2.2,3,7.4,11.2,7.4L838.6,506.6z M691.6,445.7c0-6.8,6.4-12.3,14.2-12.3h53.8
		c7.9,0,14.2,5.5,14.2,12.3c0,6.8-6.4,12.3-14.2,12.3h-12.9l0,56.7c0,7.9-5.9,14.2-13.2,14.2c-7.3,0-13.2-6.4-13.2-14.2V458h-14.6
		C698,458,691.6,452.5,691.6,445.7z M617.9,529c-7.6,0-13.6-6.4-13.7-14.1v-43.1c0-24.3,21.6-40,43-40s43,15.7,43,40l0,42.9
		c-0.1,7.9-6.1,14.3-13.7,14.3c-7.7,0-13.7-6.5-13.7-14.3l0.2-42.9c0-4.3-4.9-11.6-15.7-11.6c-10.9,0-15.7,7.3-15.7,11.6l0.2,42.9
		C631.6,522.5,625.6,529,617.9,529z M435.7,529c-7.6,0-13.6-6.4-13.7-14.1v-43.1c0-24.3,21.6-40,43-40c21.4,0,43,15.7,43,40l0,42.9
		c-0.1,7.9-6.1,14.3-13.7,14.3c-7.7,0-13.7-6.5-13.7-14.3l0.2-42.9c0-4.3-4.9-11.6-15.7-11.6c-10.9,0-15.7,7.3-15.7,11.6l0.2,42.9
		C449.4,522.5,443.4,529,435.7,529z M391.3,529c-7.9,0-14.2-6.4-14.2-14.2v-65.4c0-7.9,6.4-14.2,14.2-14.2h2.1
		c7.9,0,14.2,6.4,14.2,14.2v65.4c0,7.9-6.4,14.2-14.2,14.2H391.3z M215.4,529c-7.6,0-13.6-6.4-13.7-14.1l0-43.1
		c0-24.3,21.6-40,43-40c21.4,0,43,15.7,43,40v42.9c-0.1,7.9-6.1,14.3-13.7,14.3c-7.7,0-13.7-6.5-13.7-14.3l0.2-42.9
		c0-4.3-4.9-11.6-15.7-11.6c-10.9,0-15.7,7.3-15.7,11.6l0.2,42.9C229.1,522.5,223.1,529,215.4,529z M142.9,456.6
		c-13.2,0-24,10.7-24,24c0,13.2,10.7,24,24,24c13.2,0,24-10.7,24-24C166.9,467.4,156.1,456.6,142.9,456.6z M142.9,432.2
		c26.7,0,48.4,21.7,48.4,48.4S169.6,529,142.9,529c-26.7,0-48.4-21.7-48.4-48.4S116.2,432.2,142.9,432.2z M580.2,506.6
		c6.5,0.1,11.8,5,11.8,11.4c0,6.4-5.4,11-11.8,11h-27.3c-16.5,0-33.6-11.5-33.6-29.8c0-7.4,2.8-13.7,7.2-18.6
		c-4.4-4.9-7.2-11.2-7.2-18.6c0-18.3,17.1-29.8,33.6-29.8l27.4,0c6.5,0.1,11.8,5,11.8,11.4c0,6.4-5.4,11-11.8,11h-27.3
		c-8.2,0-11.2,5.2-11.2,7.4c0,2.2,3,7.4,11.2,7.4l27.4,0c6.5,0.1,11.8,5,11.8,11.4c0,6.4-5.4,11-11.8,11h-27.3
		c-8.2,0-11.2,5.2-11.2,7.4c0,2.2,3,7.4,11.2,7.4L580.2,506.6z M286.6,445.7c0-6.8,6.4-12.3,14.2-12.3h53.8
		c7.9,0,14.2,5.5,14.2,12.3c0,6.8-6.4,12.3-14.2,12.3h-12.9v56.7c0,7.9-5.9,14.2-13.2,14.2c-7.3,0-13.2-6.4-13.2-14.2V458h-14.6
		C293,458,286.6,452.5,286.6,445.7z"/>
	<path fill-rule="evenodd" clip-rule="evenodd" fill="#E30613" d="M425.2,191.1c10.9,0,19.8,8.8,19.8,19.8
		c0,10.9-8.8,19.8-19.8,19.8c-10.9,0-19.8-8.8-19.8-19.8C405.4,200,414.3,191.1,425.2,191.1z M424.3,162.6
		c-26.7,0-48.3,21.6-48.3,48.3c0,26.7,21.6,48.3,48.3,48.3c13.3,0,25.4-5.4,34.1-14.1c10.7-10.7,27.9-10.7,38.6,0
		c10.7,10.7,10.7,27.9,0,38.6c-18.7,18.6-44.4,30.1-72.7,30.1c-56.8,0-102.9-46.1-102.9-102.9c0-56.8,46.1-102.9,102.9-102.9
		c28.4,0,54.1,11.5,72.7,30.1c10.7,10.7,10.7,28,0.1,38.7c-10.7,10.7-27.9,10.7-38.6,0C449.7,168,437.7,162.6,424.3,162.6z
		 M288.1,210.9c0-75.7,61.4-137.1,137.1-137.1c75.7,0,137.1,61.4,137.1,137.1c0,75.7-61.4,137.1-137.1,137.1
		C349.5,348,288.1,286.6,288.1,210.9z M252.2,210.9c0-95.5,77.4-173,173-173c95.5,0,173,77.4,173,173c0,95.5-77.4,173-173,173
		C329.7,383.9,252.2,306.4,252.2,210.9z"/>
</g>
</svg>
