<?xml version="1.0" encoding="utf-8"?>
<!-- Generator: Adobe Illustrator 18.0.0, SVG Export Plug-In . SVG Version: 6.00 Build 0)  -->
<!DOCTYPE svg PUBLIC "-//W3C//DTD SVG 1.1//EN" "http://www.w3.org/Graphics/SVG/1.1/DTD/svg11.dtd">
<svg version="1.1"
	 id="svg2" xmlns:cc="http://creativecommons.org/ns#" xmlns:rdf="http://www.w3.org/1999/02/22-rdf-syntax-ns#" xmlns:dc="http://purl.org/dc/elements/1.1/"
	 xmlns="http://www.w3.org/2000/svg" xmlns:xlink="http://www.w3.org/1999/xlink" x="0px" y="0px" viewBox="100 -135.7 800 600"
	 enable-background="new 100 -135.7 800 600" xml:space="preserve">
<g>
	<path id="path2998" fill="#4885ED" d="M296.7,125.8h-93.3v27.7h66.2c-3.3,38.8-35.6,55.4-66.1,55.4c-39,0-73.1-30.7-73.1-73.7
		c0-41.9,32.5-74.2,73.2-74.2c31.4,0,49.9,20,49.9,20l19.4-20.1c0,0-24.9-27.7-70.3-27.7C144.7,33.1,100,81.9,100,134.6
		c0,51.6,42.1,102,104,102c54.5,0,94.4-37.3,94.4-92.5C298.4,132.5,296.7,125.8,296.7,125.8L296.7,125.8z"/>
	<path id="path3000" fill="#DB3236" d="M373.2,105.7c-38.3,0-65.8,29.9-65.8,64.9c0,35.4,26.6,65.9,66.2,65.9
		c35.8,0,65.2-27.4,65.2-65.2C438.8,128,404.6,105.7,373.2,105.7L373.2,105.7z M373.5,131.4c18.8,0,36.7,15.2,36.7,39.8
		c0,24-17.8,39.7-36.8,39.7c-20.9,0-37.3-16.7-37.3-39.9C336.1,148.3,352.4,131.4,373.5,131.4L373.5,131.4z"/>
	<path id="path3005" fill="#F4C20D" d="M516.2,105.7c-38.3,0-65.8,29.9-65.8,64.9c0,35.4,26.6,65.9,66.2,65.9
		c35.8,0,65.2-27.4,65.2-65.2C581.8,128,547.6,105.7,516.2,105.7L516.2,105.7z M516.5,131.4c18.8,0,36.7,15.2,36.7,39.8
		c0,24-17.8,39.7-36.8,39.7c-20.9,0-37.3-16.7-37.3-39.9C479.1,148.3,495.4,131.4,516.5,131.4L516.5,131.4z"/>
	<path id="path3007" fill="#4885ED" d="M656.4,105.8c-35.2,0-62.8,30.8-62.8,65.4c0,39.4,32,65.5,62.2,65.5
		c18.6,0,28.6-7.4,35.9-15.9v12.9c0,22.6-13.7,36.1-34.4,36.1c-20,0-30-14.9-33.5-23.3l-25.1,10.5c8.9,18.9,26.9,38.5,58.8,38.5
		c35,0,61.6-22,61.6-68.2V109.7h-27.4v11.1C683.3,111.7,671.7,105.8,656.4,105.8L656.4,105.8z M659,131.4
		c17.2,0,34.9,14.7,34.9,39.9c0,25.5-17.7,39.6-35.3,39.6c-18.7,0-36.2-15.2-36.2-39.4C622.4,146.4,640.5,131.4,659,131.4L659,131.4
		z"/>
	<path id="path3011" fill="#DB3236" d="M841.1,105.6c-33.2,0-61,26.4-61,65.3c0,41.2,31,65.6,64.2,65.6c27.7,0,44.7-15.1,54.8-28.7
		l-22.6-15c-5.9,9.1-15.7,18-32,18c-18.4,0-26.8-10.1-32.1-19.8l87.7-36.4l-4.6-10.7C887,123.1,867.2,105.6,841.1,105.6L841.1,105.6
		z M842.2,130.8c12,0,20.6,6.4,24.2,14l-58.6,24.5C805.3,150.3,823.3,130.8,842.2,130.8L842.2,130.8z"/>
	<path id="path3015" fill="#3CBA54" d="M738.2,232.7H767V39.9h-28.8V232.7z"/>
</g>
</svg>
