<?xml version="1.0" encoding="utf-8"?>
<!-- Generator: Adobe Illustrator 18.0.0, SVG Export Plug-In . SVG Version: 6.00 Build 0)  -->
<!DOCTYPE svg PUBLIC "-//W3C//DTD SVG 1.1//EN" "http://www.w3.org/Graphics/SVG/1.1/DTD/svg11.dtd">
<svg version="1.1" id="Layer_1" xmlns="http://www.w3.org/2000/svg" xmlns:xlink="http://www.w3.org/1999/xlink" x="0px" y="0px"
	 viewBox="0 0 300 200" enable-background="new 0 0 300 200" xml:space="preserve">
<path fill-rule="evenodd" clip-rule="evenodd" fill="#0399AA" d="M11.7,55.5L0,140.2c-0.6,4.7,16.5,7,17.2,2.3l11.7-84.7
	C29.5,53.1,12.3,50.8,11.7,55.5L11.7,55.5z M86.5,55.5l11.7,84.7c0.6,4.7-16.5,7-17.2,2.3L69.3,57.8C68.6,53.1,85.8,50.8,86.5,55.5
	L86.5,55.5z M57.7,57.9v85.4c0,4.8-17.3,4.8-17.3,0V57.9C40.4,53.1,57.7,53.1,57.7,57.9L57.7,57.9z M115.9,138.4l65,8.7
	c4.8,0.6,7.1-16.4,2.3-17l-65.1-8.7C113.5,120.8,111.2,137.8,115.9,138.4L115.9,138.4z M115.9,61.6l65-8.7c4.8-0.6,7.1,16.4,2.3,17
	l-65.1,8.7C113.5,79.2,111.2,62.2,115.9,61.6L115.9,61.6z M118.2,91.3h65.7c4.8,0,4.8,17.2,0,17.2h-65.7
	C113.4,108.5,113.4,91.3,118.2,91.3L118.2,91.3z M250.3,68.6c-17.5,0-31.8,14.1-31.8,31.4c0,17.3,14.2,31.4,31.8,31.4
	c17.5,0,31.8-14.1,31.8-31.4C282.1,82.7,267.8,68.6,250.3,68.6L250.3,68.6z M250.3,149.1c-27.4,0-49.7-22-49.7-49.1
	c0-27.1,22.3-49.1,49.7-49.1c27.4,0,49.7,22,49.7,49.1C300,127.1,277.7,149.1,250.3,149.1z"/>
</svg>
