<?xml version="1.0" encoding="utf-8"?>
<!-- Generator: Adobe Illustrator 18.0.0, SVG Export Plug-In . SVG Version: 6.00 Build 0)  -->
<!DOCTYPE svg PUBLIC "-//W3C//DTD SVG 1.1//EN" "http://www.w3.org/Graphics/SVG/1.1/DTD/svg11.dtd">
<svg version="1.1" id="Layer_1" xmlns="http://www.w3.org/2000/svg" xmlns:xlink="http://www.w3.org/1999/xlink" x="0px" y="0px"
	 viewBox="0 0 600 400" enable-background="new 0 0 600 400" xml:space="preserve">
<g>
	<path fill="#F25022" d="M0,135.9h61c0,20.3,0,40.6,0,61c-20.3,0-40.6,0-60.9,0V135.9L0,135.9z"/>
	<path fill="#80BA01" d="M67.2,135.9h61c0,20.3,0,40.6,0,61c-20.3,0-40.6,0-60.9,0C67.2,176.6,67.2,156.3,67.2,135.9L67.2,135.9z"/>
	<path fill="#777777" d="M549.6,159.2c5.6-3.7,12.9-4,19.2-2.3c0.1,3.8,0,7.5,0,11.3c-3-1.3-6.5-2.2-9.7-0.9c-2.5,1-4,3.6-4.4,6.2
		c-0.5,3.3-0.2,6.6-0.2,9.9c6.4,0,12.9,0,19.3,0c0-4.2-0.1-8.4,0.1-12.5c4.4-1.2,8.7-2.6,13-3.9c0,5.5-0.1,11,0,16.5
		c4.3-0.1,8.7,0,13,0V194c-4.4-0.2-8.7,0-13.1-0.1c0,6.2,0,12.3,0,18.5c0.1,3.4-0.2,6.8,0.2,10.2c0.2,2,1,4.2,2.8,5.3
		c3.1,1.8,7.1,1,10-0.9v10.8c-3.8,1.6-8,2.1-12.1,1.8c-3.9-0.3-7.9-1.7-10.4-4.8c-2.9-3.5-3.7-8.2-3.7-12.6c0-9.4,0-18.9,0-28.3
		c-6.4,0-12.9,0-19.3,0c0,14.8,0,29.6,0,44.5c-4.4,0-8.8,0-13.2,0c0-14.8,0-29.6,0-44.5c-3.1-0.1-6.1,0-9.2,0c0-3.5,0-7,0-10.6
		c3-0.1,6.1,0,9.1,0c0.2-4.7-0.5-9.5,0.9-14.1C543.4,165.2,546,161.5,549.6,159.2L549.6,159.2z"/>
	<path fill="#777777" d="M267.4,159.9c2.7-0.4,5.5,0.5,7.3,2.6c2.1,2.3,2.4,5.9,0.9,8.6c-1.7,3-5.5,4.4-8.8,3.7
		c-3.4-0.6-6.3-3.8-6.1-7.3C260.6,163.7,263.7,160.3,267.4,159.9L267.4,159.9z"/>
	<path fill="#777777" d="M166.4,161.6c6.4,0,12.8,0,19.2,0c6,15.2,12,30.3,18,45.4c1.5,3.8,3,7.6,4.6,11.4
		c7.7-18.9,15.5-37.8,23.1-56.8c6.1-0.1,12.3,0,18.4,0c0,25.6,0,51.2,0,76.9c-4.4,0-8.9,0-13.3,0c0-18.9,0-37.8,0-56.7
		c0-0.8,0-1.7-0.1-2.5c-0.3,0.4-0.5,0.8-0.7,1.2c-7.6,19.4-15.4,38.7-23,58c-3.2,0.1-6.3,0-9.5,0.1c-7.9-19.4-15.6-38.8-23.4-58.1
		c-0.2-0.4-0.4-0.8-0.7-1.2c-0.2,8.3,0,16.6-0.1,24.9c0,11.5,0,22.9,0,34.4c-4.2,0-8.4,0-12.5,0
		C166.4,212.8,166.4,187.2,166.4,161.6L166.4,161.6z"/>
	<path fill="#777777" d="M303.7,183.3c6.4-1.8,13.2-1.7,19.6,0.1c1.3,0.4,2.6,0.9,3.8,1.6c-0.1,4.2,0,8.4,0,12.6
		c-4.3-3.2-9.6-5.3-15-4.6c-4.3,0.4-8.4,2.6-10.9,6.1c-3.3,4.3-4.1,10-3.5,15.3c0.4,4.1,2.1,8.2,5.3,11c3.3,3,8,4,12.3,3.7
		c4.3-0.5,8.4-2.3,11.8-4.9c0,4,0,8,0,11.9c-5.4,3.2-11.8,4-18,3.7c-6.3-0.3-12.6-2.7-17.2-7.2c-5-4.8-7.7-11.6-8-18.4
		c-0.3-7.1,1.1-14.5,5.2-20.5C292.5,188.6,297.8,185,303.7,183.3L303.7,183.3z"/>
	<path fill="#777777" d="M447.7,182.5c6.1-1.1,12.5-0.3,18.2,1.9c0,4,0,8.1,0,12.1c-4-2.8-9-4.3-13.8-4.1c-2.5,0.1-5.2,1.1-6.3,3.5
		c-0.9,2.3-0.3,5.4,1.9,6.7c3.7,2.5,8.2,3.6,12.1,5.8c3,1.7,6,4,7.6,7.2c2.9,6,1.7,14-3.4,18.5c-4.9,4.6-11.9,5.8-18.3,5.6
		c-4.6-0.3-9.2-1.2-13.4-3.1c0-4.3,0-8.5,0-12.7c3.5,2.6,7.6,4.4,12,5.2c3,0.5,6.3,0.5,9.1-0.8c2.7-1.3,3.2-5.2,1.6-7.5
		c-1.5-1.8-3.7-2.8-5.8-3.8c-3.9-1.7-8-3.2-11.4-5.8c-2.4-1.9-4.2-4.5-4.9-7.5c-1.1-4.4-0.7-9.3,1.8-13.1
		C437.5,186,442.5,183.4,447.7,182.5L447.7,182.5z"/>
	<path fill="#777777" d="M356.5,184.2c3.6-2.2,8.3-2.4,12.2-1c0,4.4,0,8.8,0,13.2c-2.6-1.7-5.8-2.4-8.9-2.1
		c-3.7,0.4-6.7,3.3-8.2,6.6c-1.7,3.5-2,7.4-1.9,11.2c0,8.8,0,17.6,0,26.3c-4.3,0-8.7,0-13,0c0-18.4,0-36.7,0-55.1
		c4.3-0.1,8.7,0,13,0c0,3.2,0,6.3,0,9.5C351.1,189.4,353.2,186.1,356.5,184.2L356.5,184.2z"/>
	<path fill="#777777" d="M261.9,183.4c4.4,0,8.7-0.1,13.1,0c-0.1,18.4,0,36.7,0,55.1c-4.4,0-8.7,0-13.1,0
		C261.9,220.1,261.9,201.7,261.9,183.4L261.9,183.4z"/>
	<path fill="#777777" d="M423.4,196.2c-2.3-5.1-6.4-9.3-11.5-11.6c-5.9-2.7-12.5-3-18.9-2.2c-6.6,0.8-13.1,4-17.3,9.3
		c-3.9,4.7-5.7,10.8-6.1,16.8c-0.5,7.1,0.7,14.6,4.8,20.6c3.6,5.1,9.2,8.6,15.2,9.9c5.1,1.1,10.4,1.1,15.4,0
		c5.9-1.2,11.5-4.5,15.1-9.3c3.6-4.6,5.4-10.3,5.8-16C426.4,207.7,425.8,201.6,423.4,196.2z M410.7,221.5c-1.3,2.8-3.6,5.2-6.5,6.4
		c-3.4,1.3-7.2,1.4-10.7,0.5c-3.6-0.9-6.6-3.5-8.3-6.8c-2.1-4.2-2.4-9.1-2-13.8c0.4-4.2,1.9-8.6,5.1-11.5c2.3-2.2,5.5-3.2,8.7-3.4
		c4-0.3,8.2,0.9,11,3.7c3,3,4.2,7.3,4.6,11.5C412.7,212.6,412.6,217.3,410.7,221.5z"/>
	<path fill="#777777" d="M529,197.8c-2-5.5-6.1-10.2-11.3-12.8c-6-3-13-3.5-19.6-2.7c-5.3,0.7-10.5,2.7-14.6,6.2
		c-4.9,4.3-7.8,10.5-8.7,16.9c-0.8,6.4-0.5,13.1,2.1,19.1c2.5,5.9,7.4,10.7,13.4,13c5.9,2.3,12.4,2.6,18.6,1.6
		c6.3-1,12.3-4.4,16.2-9.5c4.2-5.3,6-12.1,6-18.8C531.1,206.5,530.5,202,529,197.8z M517.1,216.5c-0.5,2.9-1.5,5.8-3.4,8.1
		c-1.9,2.3-4.8,3.7-7.7,4.1c-3.2,0.5-6.5,0.2-9.4-1c-3.2-1.3-5.7-4.1-7-7.3c-1.6-3.8-1.9-8-1.6-12c0.3-3.9,1.4-7.9,4-11
		c2.4-2.8,6-4.4,9.6-4.6c3.7-0.3,7.7,0.6,10.6,3.1c2.6,2.2,4.1,5.5,4.8,8.8C517.7,208.6,517.7,212.6,517.1,216.5z"/>
	<path fill="#02A4EF" d="M0,203.1c20.3,0,40.6,0,61,0c0,20.3,0,40.6,0,60.9H0V203.1L0,203.1z"/>
	<path fill="#FFB902" d="M67.2,203.1c20.3,0,40.6,0,60.9,0c0,20.3,0,40.6,0,61h-61C67.2,243.7,67.2,223.4,67.2,203.1L67.2,203.1z"/>
</g>
</svg>
