<?xml version="1.0" encoding="utf-8"?>
<!-- Generator: Adobe Illustrator 18.0.0, SVG Export Plug-In . SVG Version: 6.00 Build 0)  -->
<!DOCTYPE svg PUBLIC "-//W3C//DTD SVG 1.1//EN" "http://www.w3.org/Graphics/SVG/1.1/DTD/svg11.dtd">
<svg version="1.1" id="Layer_1" xmlns="http://www.w3.org/2000/svg" xmlns:xlink="http://www.w3.org/1999/xlink" x="0px" y="0px"
	 viewBox="0 0 400 300" enable-background="new 0 0 400 300" xml:space="preserve">
<g>
	<g>
		<path fill="#E50914" d="M308.9,193.8c5.6,0.4,11.2,0.9,16.8,1.4V96.3h-16.8V193.8z M37.9,157.1L16,96.3H0v107.5
			c5.6-0.8,11.2-1.6,16.8-2.3V143l19.5,56c6.1-0.7,12.3-1.4,18.4-2V96.3H37.9V157.1z M71,195.5c15.5-1.4,31.1-2.6,46.8-3.5v-16.6
			c-10,0.6-20,1.3-29.9,2v-25.1c6.5-0.1,15.1-0.3,22.7-0.2v-16.6c-6.1,0-15.9,0.1-22.7,0.2V113h29.9V96.3H71V195.5z M128.6,113h17.6
			v77.6c5.6-0.2,11.2-0.4,16.8-0.5V113h17.6V96.3h-52.1V113z M191.5,189.6l16.8,0v-38.3h22.8v-16.6h-22.8V113h30.2V96.3h-47V189.6z
			 M400,96.3h-18.5l-12.2,28.3l-11-28.3h-18.2l19.6,50.5l-21.4,49.6c5.9,0.6,11.8,1.2,17.7,1.8l12.4-28.8l12.3,31.8
			c6.4,0.8,12.8,1.7,19.2,2.6l0,0l-21.9-56.6L400,96.3z M266.1,96.3h-16.8v94.2c15.3,0.5,30.6,1.3,45.7,2.3v-16.6
			c-9.6-0.6-19.2-1.2-28.9-1.6V96.3z"/>
	</g>
</g>
</svg>
